<?xml version="1.0" encoding="utf-8"?>
<!-- Generator: Adobe Illustrator 18.0.0, SVG Export Plug-In . SVG Version: 6.00 Build 0)  -->
<!DOCTYPE svg PUBLIC "-//W3C//DTD SVG 1.1//EN" "http://www.w3.org/Graphics/SVG/1.1/DTD/svg11.dtd">
<svg version="1.1" id="Layer_1" xmlns="http://www.w3.org/2000/svg" xmlns:xlink="http://www.w3.org/1999/xlink" x="0px" y="0px"
	 viewBox="0 307.9 595.3 216" enable-background="new 0 307.9 595.3 216" xml:space="preserve">
<g enable-background="new    ">
	<path fill="#FFFFFF" d="M13.1,316.4h7v7.7h-7V316.4z M13.1,326h7v7.7h-7V326z M13.1,335.6h7v7.7h-7V335.6z M13.1,345.1h7v7.7h-7
		V345.1z M13.1,354.7h7v7.7h-7V354.7z M13.1,364.2h7v7.7h-7V364.2z M13.1,373.8h7v7.7h-7V373.8z M21.8,326h7v7.7h-7V326z
		 M30.5,335.6h7v7.7h-7V335.6z M39.2,326h7v7.7h-7V326z M47.9,316.4h7v7.7h-7V316.4z M47.9,326h7v7.7h-7V326z M47.9,335.6h7v7.7h-7
		V335.6z M47.9,345.1h7v7.7h-7V345.1z M47.9,354.7h7v7.7h-7V354.7z M47.9,364.2h7v7.7h-7V364.2z M47.9,373.8h7v7.7h-7V373.8z"/>
	<path fill="#FFFFFF" d="M63.6,326h7v7.7h-7V326z M63.6,335.6h7v7.7h-7V335.6z M63.6,345.1h7v7.7h-7V345.1z M63.6,354.7h7v7.7h-7
		V354.7z M63.6,364.2h7v7.7h-7V364.2z M63.6,373.8h7v7.7h-7V373.8z M72.3,316.4h7v7.7h-7V316.4z M72.3,345.1h7v7.7h-7V345.1z
		 M81,316.4h7v7.7h-7V316.4z M81,345.1h7v7.7h-7V345.1z M89.7,316.4h7v7.7h-7V316.4z M89.7,345.1h7v7.7h-7V345.1z M98.4,326h7v7.7
		h-7V326z M98.4,335.6h7v7.7h-7V335.6z M98.4,345.1h7v7.7h-7V345.1z M98.4,354.7h7v7.7h-7V354.7z M98.4,364.2h7v7.7h-7V364.2z
		 M98.4,373.8h7v7.7h-7V373.8z"/>
	<path fill="#FFFFFF" d="M114.1,326h7v7.7h-7V326z M114.1,335.6h7v7.7h-7V335.6z M114.1,345.1h7v7.7h-7V345.1z M114.1,354.7h7v7.7
		h-7V354.7z M114.1,364.2h7v7.7h-7V364.2z M122.8,316.4h7v7.7h-7V316.4z M122.8,373.8h7v7.7h-7V373.8z M131.5,316.4h7v7.7h-7V316.4z
		 M131.5,354.7h7v7.7h-7V354.7z M131.5,373.8h7v7.7h-7V373.8z M140.2,316.4h7v7.7h-7V316.4z M140.2,354.7h7v7.7h-7V354.7z
		 M140.2,373.8h7v7.7h-7V373.8z M148.9,326h7v7.7h-7V326z M148.9,354.7h7v7.7h-7V354.7z M148.9,364.2h7v7.7h-7V364.2z M148.9,373.8
		h7v7.7h-7V373.8z"/>
	<path fill="#FFFFFF" d="M171.2,316.4h7v7.7h-7V316.4z M171.2,373.8h7v7.7h-7V373.8z M179.9,316.4h7v7.7h-7V316.4z M179.9,326h7v7.7
		h-7V326z M179.9,335.6h7v7.7h-7V335.6z M179.9,345.1h7v7.7h-7V345.1z M179.9,354.7h7v7.7h-7V354.7z M179.9,364.2h7v7.7h-7V364.2z
		 M179.9,373.8h7v7.7h-7V373.8z M188.6,316.4h7v7.7h-7V316.4z M188.6,373.8h7v7.7h-7V373.8z"/>
	<path fill="#FFFFFF" d="M203.2,326h7v7.7h-7V326z M203.2,335.6h7v7.7h-7V335.6z M203.2,345.1h7v7.7h-7V345.1z M203.2,354.7h7v7.7
		h-7V354.7z M203.2,364.2h7v7.7h-7V364.2z M211.9,316.4h7v7.7h-7V316.4z M211.9,373.8h7v7.7h-7V373.8z M220.6,316.4h7v7.7h-7V316.4z
		 M220.6,373.8h7v7.7h-7V373.8z M229.3,316.4h7v7.7h-7V316.4z M229.3,373.8h7v7.7h-7V373.8z M238,326h7v7.7h-7V326z M238,364.2h7
		v7.7h-7V364.2z"/>
</g>
<g enable-background="new    ">
	<path fill="#FFFFFF" d="M362.6,454.2c3.9,1.3,6.8,3.5,8.7,6.5c1.9,3,2.9,10,2.9,21.1c0,8.2-0.9,14.6-2.8,19.1
		c-1.9,4.5-5.1,8-9.7,10.3s-10.5,3.5-17.6,3.5c-8.2,0-14.6-1.4-19.2-4.1c-4.6-2.7-7.7-6.1-9.2-10.1c-1.5-4-2.2-10.9-2.2-20.7v-8.2
		h25.7v16.8c0,4.5,0.3,7.3,0.8,8.5c0.5,1.2,1.7,1.8,3.5,1.8c2,0,3.3-0.8,3.9-2.3s1-5.5,1-12v-7.1c0-3.9-0.4-6.8-1.3-8.7
		c-0.9-1.8-2.2-3-3.9-3.6c-1.7-0.6-5.1-0.9-10.1-1v-15c6.1,0,9.9-0.2,11.3-0.7c1.4-0.5,2.5-1.5,3.1-3.1c0.6-1.6,1-4,1-7.4v-5.7
		c0-3.6-0.4-6-1.1-7.1c-0.7-1.1-1.9-1.7-3.5-1.7c-1.8,0-3,0.6-3.7,1.8c-0.7,1.2-1,3.8-1,7.7v8.5h-25.7v-8.8c0-9.9,2.2-16.5,6.8-20
		c4.5-3.5,11.7-5.2,21.5-5.2c12.3,0,20.6,2.4,25,7.2c4.4,4.8,6.6,11.5,6.6,20c0,5.8-0.8,9.9-2.4,12.5
		C369.3,449.7,366.6,452,362.6,454.2z"/>
	<path fill="#FFFFFF" d="M444.1,444.4v34.4c0,7.8-0.4,13.5-1.3,17.1c-0.8,3.6-2.6,6.9-5.3,10c-2.7,3.1-5.9,5.3-9.7,6.7
		c-3.8,1.4-8,2-12.7,2c-6.2,0-11.3-0.7-15.3-2.1s-7.3-3.6-9.7-6.7c-2.4-3-4.1-6.2-5.2-9.5c-1-3.3-1.5-8.6-1.5-15.9v-36
		c0-9.5,0.8-16.6,2.5-21.3c1.6-4.7,4.9-8.5,9.7-11.3c4.9-2.8,10.8-4.3,17.7-4.3c5.6,0,10.7,1,15.2,3s7.8,4.4,10,7.2
		c2.2,2.8,3.7,6.1,4.5,9.6C443.7,430.9,444.1,436.6,444.1,444.4z M418.4,435.7c0-5.5-0.3-8.9-0.8-10.3c-0.5-1.4-1.8-2.1-3.7-2.1
		c-1.9,0-3.2,0.7-3.8,2.2c-0.6,1.5-0.9,4.9-0.9,10.2V486c0,6,0.3,9.6,0.9,10.8c0.6,1.2,1.8,1.8,3.7,1.8s3.2-0.7,3.8-2.2
		c0.6-1.4,0.9-4.7,0.9-9.7V435.7z"/>
	<path fill="#FFFFFF" d="M514.1,444.4v34.4c0,7.8-0.4,13.5-1.3,17.1c-0.8,3.6-2.6,6.9-5.3,10c-2.7,3.1-5.9,5.3-9.7,6.7
		c-3.8,1.4-8,2-12.7,2c-6.2,0-11.3-0.7-15.3-2.1s-7.3-3.6-9.7-6.7c-2.4-3-4.1-6.2-5.2-9.5c-1-3.3-1.5-8.6-1.5-15.9v-36
		c0-9.5,0.8-16.6,2.5-21.3c1.6-4.7,4.9-8.5,9.7-11.3c4.9-2.8,10.8-4.3,17.7-4.3c5.6,0,10.7,1,15.2,3s7.8,4.4,10,7.2
		c2.2,2.8,3.7,6.1,4.5,9.6C513.7,430.9,514.1,436.6,514.1,444.4z M488.3,435.7c0-5.5-0.3-8.9-0.8-10.3c-0.5-1.4-1.8-2.1-3.7-2.1
		c-1.9,0-3.2,0.7-3.8,2.2c-0.6,1.5-0.9,4.9-0.9,10.2V486c0,6,0.3,9.6,0.9,10.8c0.6,1.2,1.8,1.8,3.7,1.8s3.2-0.7,3.8-2.2
		c0.6-1.4,0.9-4.7,0.9-9.7V435.7z"/>
	<path fill="#FFFFFF" d="M584,444.4v34.4c0,7.8-0.4,13.5-1.3,17.1c-0.8,3.6-2.6,6.9-5.3,10c-2.7,3.1-5.9,5.3-9.7,6.7
		c-3.8,1.4-8,2-12.7,2c-6.2,0-11.3-0.7-15.3-2.1s-7.3-3.6-9.7-6.7c-2.4-3-4.1-6.2-5.2-9.5c-1-3.3-1.5-8.6-1.5-15.9v-36
		c0-9.5,0.8-16.6,2.5-21.3c1.6-4.7,4.9-8.5,9.7-11.3c4.9-2.8,10.8-4.3,17.7-4.3c5.6,0,10.7,1,15.2,3s7.8,4.4,10,7.2
		c2.2,2.8,3.7,6.1,4.5,9.6C583.6,430.9,584,436.6,584,444.4z M558.3,435.7c0-5.5-0.3-8.9-0.8-10.3c-0.5-1.4-1.8-2.1-3.7-2.1
		c-1.9,0-3.2,0.7-3.8,2.2c-0.6,1.5-0.9,4.9-0.9,10.2V486c0,6,0.3,9.6,0.9,10.8c0.6,1.2,1.8,1.8,3.7,1.8s3.2-0.7,3.8-2.2
		c0.6-1.4,0.9-4.7,0.9-9.7V435.7z"/>
</g>
<g enable-background="new    ">
	<path fill="#FFFFFF" d="M249.8,374.1h7l-1.9,7.5h-7L249.8,374.1z M258.4,374.1h7l-1.9,7.5h-7L258.4,374.1z M259.3,336.9h7l-1.9,7.5
		h-7L259.3,336.9z M261.7,327.6h7l-1.9,7.5h-7L261.7,327.6z M265.6,346.2h7l-1.9,7.5h-7L265.6,346.2z M267.1,374.1h7l-1.9,7.5h-7
		L267.1,374.1z M272.8,318.3h7l-1.9,7.5h-7L272.8,318.3z M274.3,346.2h7l-1.9,7.5h-7L274.3,346.2z M275.8,374.1h7l-1.9,7.5h-7
		L275.8,374.1z M281.5,318.3h7l-1.9,7.5h-7L281.5,318.3z M283,346.2h7l-1.9,7.5h-7L283,346.2z M286.9,364.8h7l-1.9,7.5h-7
		L286.9,364.8z M289.3,355.5h7l-1.9,7.5h-7L289.3,355.5z M290.2,318.3h7l-1.9,7.5h-7L290.2,318.3z M298.9,318.3h7l-1.9,7.5h-7
		L298.9,318.3z"/>
	<path fill="#FFFFFF" d="M298.3,374.1h7l-1.9,7.5h-7L298.3,374.1z M300.6,364.8h7l-1.9,7.5h-7L300.6,364.8z M303,355.5h7l-1.9,7.5
		h-7L303,355.5z M305.4,346.2h7l-1.9,7.5h-7L305.4,346.2z M307.8,336.9h7l-1.9,7.5h-7L307.8,336.9z M310.2,327.6h7l-1.9,7.5h-7
		L310.2,327.6z M312.6,318.3h7l-1.9,7.5h-7L312.6,318.3z M314.1,346.2h7l-1.9,7.5h-7L314.1,346.2z M322.8,346.2h7l-1.9,7.5h-7
		L322.8,346.2z M331.5,346.2h7l-1.9,7.5h-7L331.5,346.2z M333,374.1h7l-1.9,7.5h-7L333,374.1z M335.4,364.8h7l-1.9,7.5h-7
		L335.4,364.8z M337.8,355.5h7l-1.9,7.5h-7L337.8,355.5z M340.2,346.2h7l-1.9,7.5h-7L340.2,346.2z M342.6,336.9h7l-1.9,7.5h-7
		L342.6,336.9z M345,327.6h7l-1.9,7.5h-7L345,327.6z M347.4,318.3h7l-1.9,7.5h-7L347.4,318.3z"/>
	<path fill="#FFFFFF" d="M357.4,374.1h7l-1.9,7.5h-7L357.4,374.1z M366.1,374.1h7l-1.9,7.5h-7L366.1,374.1z M368.5,364.8h7l-1.9,7.5
		h-7L368.5,364.8z M370.9,355.5h7L376,363h-7L370.9,355.5z M371.8,318.3h7l-1.9,7.5h-7L371.8,318.3z M373.3,346.2h7l-1.9,7.5h-7
		L373.3,346.2z M374.8,374.1h7l-1.9,7.5h-7L374.8,374.1z M375.7,336.9h7l-1.9,7.5h-7L375.7,336.9z M378.1,327.6h7l-1.9,7.5h-7
		L378.1,327.6z M380.5,318.3h7l-1.9,7.5h-7L380.5,318.3z M389.2,318.3h7l-1.9,7.5h-7L389.2,318.3z"/>
	<path fill="#FFFFFF" d="M389.4,374.1h7l-1.9,7.5h-7L389.4,374.1z M391.8,364.8h7l-1.9,7.5h-7L391.8,364.8z M394.2,355.5h7l-1.9,7.5
		h-7L394.2,355.5z M396.6,346.2h7l-1.9,7.5h-7L396.6,346.2z M399,336.9h7l-1.9,7.5h-7L399,336.9z M401.4,327.6h7l-1.9,7.5h-7
		L401.4,327.6z M403.8,318.3h7l-1.9,7.5h-7L403.8,318.3z M405.3,346.2h7l-1.9,7.5h-7L405.3,346.2z M412.5,318.3h7l-1.9,7.5h-7
		L412.5,318.3z M414,346.2h7l-1.9,7.5h-7L414,346.2z M421.2,318.3h7l-1.9,7.5h-7L421.2,318.3z M422.7,346.2h7l-1.9,7.5h-7
		L422.7,346.2z M429.9,318.3h7l-1.9,7.5h-7L429.9,318.3z M438.5,318.3h7l-1.9,7.5h-7L438.5,318.3z"/>
	<path fill="#FFFFFF" d="M449.9,318.3h7l-1.9,7.5h-7L449.9,318.3z M453,374.1h7l-1.9,7.5h-7L453,374.1z M455.4,364.8h7l-1.9,7.5h-7
		L455.4,364.8z M457.8,355.5h7l-1.9,7.5h-7L457.8,355.5z M458.6,318.3h7l-1.9,7.5h-7L458.6,318.3z M460.1,346.2h7l-1.9,7.5h-7
		L460.1,346.2z M462.5,336.9h7l-1.9,7.5h-7L462.5,336.9z M464.9,327.6h7l-1.9,7.5h-7L464.9,327.6z M467.3,318.3h7l-1.9,7.5h-7
		L467.3,318.3z M476,318.3h7l-1.9,7.5h-7L476,318.3z M484.7,318.3h7l-1.9,7.5h-7L484.7,318.3z"/>
	<path fill="#FFFFFF" d="M481.7,374.1h7l-1.9,7.5h-7L481.7,374.1z M484.1,364.8h7l-1.9,7.5h-7L484.1,364.8z M486.5,355.5h7l-1.9,7.5
		h-7L486.5,355.5z M488.9,346.2h7l-1.9,7.5h-7L488.9,346.2z M490.4,374.1h7l-1.9,7.5h-7L490.4,374.1z M491.3,336.9h7l-1.9,7.5h-7
		L491.3,336.9z M493.7,327.6h7l-1.9,7.5h-7L493.7,327.6z M496.1,318.3h7l-1.9,7.5h-7L496.1,318.3z M497.6,346.2h7l-1.9,7.5h-7
		L497.6,346.2z M499.1,374.1h7l-1.9,7.5h-7L499.1,374.1z M504.8,318.3h7l-1.9,7.5h-7L504.8,318.3z M506.3,346.2h7l-1.9,7.5h-7
		L506.3,346.2z M507.8,374.1h7l-1.9,7.5h-7L507.8,374.1z M513.5,318.3h7l-1.9,7.5h-7L513.5,318.3z M515,346.2h7l-1.9,7.5h-7
		L515,346.2z M516.5,374.1h7l-1.9,7.5h-7L516.5,374.1z M522.2,318.3h7l-1.9,7.5h-7L522.2,318.3z M530.9,318.3h7l-1.9,7.5h-7
		L530.9,318.3z"/>
	<path fill="#FFFFFF" d="M528.2,374.1h7l-1.9,7.5h-7L528.2,374.1z M530.5,364.8h7l-1.9,7.5h-7L530.5,364.8z M532.9,355.5h7L538,363
		h-7L532.9,355.5z M535.3,346.2h7l-1.9,7.5h-7L535.3,346.2z M537.7,336.9h7l-1.9,7.5h-7L537.7,336.9z M540.1,327.6h7l-1.9,7.5h-7
		L540.1,327.6z M542.5,318.3h7l-1.9,7.5h-7L542.5,318.3z M544,346.2h7l-1.9,7.5h-7L544,346.2z M550.3,355.5h7l-1.9,7.5h-7
		L550.3,355.5z M551.2,318.3h7l-1.9,7.5h-7L551.2,318.3z M552.7,346.2h7l-1.9,7.5h-7L552.7,346.2z M556.6,364.8h7l-1.9,7.5h-7
		L556.6,364.8z M559.9,318.3h7l-1.9,7.5h-7L559.9,318.3z M561.4,346.2h7l-1.9,7.5h-7L561.4,346.2z M562.9,374.1h7l-1.9,7.5h-7
		L562.9,374.1z M568.6,318.3h7l-1.9,7.5h-7L568.6,318.3z M572.5,336.9h7l-1.9,7.5h-7L572.5,336.9z M574.9,327.6h7l-1.9,7.5h-7
		L574.9,327.6z"/>
</g>
</svg>
