<?xml version="1.0" encoding="utf-8"?>
<!-- Generator: Adobe Illustrator 18.0.0, SVG Export Plug-In . SVG Version: 6.00 Build 0)  -->
<!DOCTYPE svg PUBLIC "-//W3C//DTD SVG 1.1//EN" "http://www.w3.org/Graphics/SVG/1.1/DTD/svg11.dtd">
<svg version="1.1" id="Layer_1" xmlns="http://www.w3.org/2000/svg" xmlns:xlink="http://www.w3.org/1999/xlink" x="0px" y="0px"
	 viewBox="0 0 352.2 202.2" enable-background="new 0 0 352.2 202.2" xml:space="preserve">
<path fill="none" stroke="#FFFFFF" stroke-width="4" stroke-miterlimit="10" d="M42.9,147.9H11.5c-3.1,0-5.5-2.5-5.5-5.5V111
	c0-3.1,2.5-5.5,5.5-5.5h31.4c3.1,0,5.5,2.5,5.5,5.5v31.4C48.5,145.4,46,147.9,42.9,147.9z"/>
<path fill="none" stroke="#FFFFFF" stroke-width="4" stroke-miterlimit="10" d="M92.5,98.3H61.1c-3.1,0-5.5-2.5-5.5-5.5V61.4
	c0-3.1,2.5-5.5,5.5-5.5h31.4c3.1,0,5.5,2.5,5.5,5.5v31.4C98.1,95.8,95.6,98.3,92.5,98.3z"/>
<path fill="none" stroke="#FFFFFF" stroke-width="4" stroke-miterlimit="10" d="M142.2,48.7h-31.4c-3.1,0-5.5-2.5-5.5-5.5V11.7
	c0-3.1,2.5-5.5,5.5-5.5h31.4c3.1,0,5.5,2.5,5.5,5.5v31.4C147.7,46.2,145.2,48.7,142.2,48.7z"/>
<path fill="#FFFFFF" d="M191.8,98.3h-31.4c-3.1,0-5.5-2.5-5.5-5.5V61.4c0-3.1,2.5-5.5,5.5-5.5h31.4c3.1,0,5.5,2.5,5.5,5.5v31.4
	C197.3,95.8,194.8,98.3,191.8,98.3z"/>
<path fill="#FFFFFF" d="M241.4,147.9h-31.4c-3.1,0-5.5-2.5-5.5-5.5V111c0-3.1,2.5-5.5,5.5-5.5h31.4c3.1,0,5.5,2.5,5.5,5.5v31.4
	C246.9,145.4,244.4,147.9,241.4,147.9z"/>
<path fill="#FFFFFF" d="M191.8,197.5h-31.4c-3.1,0-5.5-2.5-5.5-5.5v-31.4c0-3.1,2.5-5.5,5.5-5.5h31.4c3.1,0,5.5,2.5,5.5,5.5V192
	C197.3,195.1,194.8,197.5,191.8,197.5z"/>
<path fill="#FFFFFF" d="M241.4,48.7h-31.4c-3.1,0-5.5-2.5-5.5-5.5V11.7c0-3.1,2.5-5.5,5.5-5.5h31.4c3.1,0,5.5,2.5,5.5,5.5v31.4
	C246.9,46.2,244.4,48.7,241.4,48.7z"/>
<path fill="none" stroke="#FFFFFF" stroke-width="4" stroke-miterlimit="10" d="M291,98.3h-31.4c-3.1,0-5.5-2.5-5.5-5.5V61.4
	c0-3.1,2.5-5.5,5.5-5.5H291c3.1,0,5.5,2.5,5.5,5.5v31.4C296.5,95.8,294,98.3,291,98.3z"/>
<path fill="none" stroke="#FFFFFF" stroke-width="4" stroke-miterlimit="10" d="M332.7,150.2h-31.4c-3.1,0-5.5-2.5-5.5-5.5v-31.4
	c0-3.1,2.5-5.5,5.5-5.5h31.4c3.1,0,5.5,2.5,5.5,5.5v31.4C338.2,147.7,335.8,150.2,332.7,150.2z"/>
</svg>
